<svg width="256" height="256" viewBox="0 0 256 256" fill="none" xmlns="http://www.w3.org/2000/svg">
  <rect x="12" y="12" width="232" height="232" rx="40" fill="#0B0D14" stroke="#2A2F3C" stroke-width="8"/>
  <path d="M60 104C72 72 92 56 120 56C162 56 167 92 188 98C202 102 214 96 224 84C212 116 192 132 164 132C122 132 117 96 96 90C82 86 70 92 60 104Z" fill="#38BDF8"/>
  <path d="M32 172C44 140 64 124 92 124C134 124 139 160 160 166C174 170 186 164 196 152C184 184 164 200 136 200C94 200 89 164 68 158C54 154 42 160 32 172Z" fill="#38BDF8"/>
</svg>
