<svg width="1200" height="900" viewBox="0 0 1200 900" fill="none" xmlns="http://www.w3.org/2000/svg">
  <rect width="1200" height="900" rx="52" fill="#09111F"/>
  <rect x="52" y="52" width="1096" height="796" rx="42" fill="url(#paint0_linear_1_2)"/>
  <rect x="102" y="110" width="996" height="104" rx="24" fill="rgba(255,255,255,0.08)"/>
  <rect x="102" y="270" width="438" height="468" rx="30" fill="rgba(255,255,255,0.08)"/>
  <rect x="580" y="270" width="518" height="214" rx="30" fill="rgba(255,255,255,0.1)"/>
  <rect x="580" y="524" width="518" height="214" rx="30" fill="rgba(255,255,255,0.06)"/>
  <rect x="150" y="148" width="210" height="18" rx="9" fill="#F8FAFC" fill-opacity="0.92"/>
  <rect x="150" y="184" width="128" height="12" rx="6" fill="#E2E8F0" fill-opacity="0.68"/>
  <rect x="152" y="330" width="336" height="224" rx="24" fill="url(#paint1_linear_1_2)"/>
  <circle cx="835" cy="376" r="72" fill="rgba(255,255,255,0.18)"/>
  <circle cx="920" cy="608" r="52" fill="#22D3EE" fill-opacity="0.22"/>
  <path d="M642 632H1040" stroke="#E2E8F0" stroke-opacity="0.6" stroke-width="14" stroke-linecap="round"/>
  <path d="M642 672H978" stroke="#E2E8F0" stroke-opacity="0.42" stroke-width="14" stroke-linecap="round"/>
  <defs>
    <linearGradient id="paint0_linear_1_2" x1="126" y1="84" x2="1090" y2="818" gradientUnits="userSpaceOnUse">
      <stop stop-color="#0F172A"/>
      <stop offset="1" stop-color="#142850"/>
    </linearGradient>
    <linearGradient id="paint1_linear_1_2" x1="152" y1="330" x2="488" y2="554" gradientUnits="userSpaceOnUse">
      <stop stop-color="#38BDF8"/>
      <stop offset="1" stop-color="#F59E0B"/>
    </linearGradient>
  </defs>
</svg>
