<svg width="1200" height="900" viewBox="0 0 1200 900" fill="none" xmlns="http://www.w3.org/2000/svg">
  <rect width="1200" height="900" rx="52" fill="#08101A"/>
  <rect x="58" y="58" width="1084" height="784" rx="40" fill="url(#paint0_linear_7_3)"/>
  <rect x="112" y="116" width="976" height="90" rx="26" fill="rgba(255,255,255,0.08)"/>
  <rect x="112" y="258" width="976" height="532" rx="34" fill="rgba(255,255,255,0.05)"/>
  <rect x="162" y="318" width="444" height="400" rx="30" fill="rgba(255,255,255,0.07)"/>
  <rect x="642" y="318" width="396" height="170" rx="30" fill="rgba(255,255,255,0.08)"/>
  <rect x="642" y="532" width="396" height="126" rx="30" fill="rgba(255,255,255,0.12)"/>
  <rect x="692" y="566" width="142" height="58" rx="29" fill="url(#paint1_linear_7_3)"/>
  <path d="M174 154H342" stroke="#F8FAFC" stroke-opacity="0.92" stroke-width="16" stroke-linecap="round"/>
  <path d="M174 188H256" stroke="#CBD5E1" stroke-opacity="0.58" stroke-width="12" stroke-linecap="round"/>
  <path d="M692 382H946" stroke="#F8FAFC" stroke-opacity="0.84" stroke-width="16" stroke-linecap="round"/>
  <path d="M692 420H886" stroke="#CBD5E1" stroke-opacity="0.54" stroke-width="12" stroke-linecap="round"/>
  <circle cx="380" cy="474" r="102" fill="#38BDF8" fill-opacity="0.18"/>
  <circle cx="454" cy="582" r="68" fill="#F59E0B" fill-opacity="0.16"/>
  <defs>
    <linearGradient id="paint0_linear_7_3" x1="130" y1="92" x2="1104" y2="810" gradientUnits="userSpaceOnUse">
      <stop stop-color="#111827"/>
      <stop offset="1" stop-color="#0F2A3E"/>
    </linearGradient>
    <linearGradient id="paint1_linear_7_3" x1="692" y1="566" x2="834" y2="624" gradientUnits="userSpaceOnUse">
      <stop stop-color="#38BDF8"/>
      <stop offset="1" stop-color="#F59E0B"/>
    </linearGradient>
  </defs>
</svg>
